HIERARCHY
ROOT SpineBase
{
  OFFSET 0.000000 0.000000 0.000000
  CHANNELS 6 Xposition Yposition Zposition Zrotation Xrotation Yrotation
  JOINT SpineMid
  {
    OFFSET 0.000000 29.764559 0.000000
    CHANNELS 3 Zrotation Xrotation Yrotation
    JOINT SpineShoulder
    {
      OFFSET -0.008750 22.109536 -0.765618
      CHANNELS 3 Zrotation Xrotation Yrotation
      JOINT Neck
      {
        OFFSET 0.011996 7.322965 -0.569656
        CHANNELS 3 Zrotation Xrotation Yrotation
        JOINT Head
        {
          OFFSET -3.758653 13.717283 -0.386164
          CHANNELS 3 Zrotation Xrotation Yrotation
          End Site
          {
            OFFSET 0 0 0
          }
        }
      }
      JOINT ShoulderLeft
      {
        OFFSET -17.167668 -4.390395 3.193057
        CHANNELS 3 Zrotation Xrotation Yrotation
        JOINT ElbowLeft
        {
          OFFSET -2.430046 -27.331307 1.233766
          CHANNELS 3 Zrotation Xrotation Yrotation
          JOINT WristLeft
          {
            OFFSET 1.922603 -21.905037 -6.170534
            CHANNELS 3 Zrotation Xrotation Yrotation
            JOINT HandLeft
            {
              OFFSET 1.030546 -1.807424 -0.785022
              CHANNELS 3 Zrotation Xrotation Yrotation
              JOINT HandTipLeft
              {
                OFFSET 1.824271 -7.875998 0.548928
                CHANNELS 3 Zrotation Xrotation Yrotation
                End Site
                {
                  OFFSET 0 0 0
                }
              }
              JOINT ThumbLeft
              {
                OFFSET 3.727031 2.438468 -2.191645
                CHANNELS 3 Zrotation Xrotation Yrotation
                End Site
                {
                  OFFSET 0 0 0
                }
              }
            }
          }
        }
      }
      JOINT ShoulderRight
      {
        OFFSET 15.114686 -2.975591 -6.408840
        CHANNELS 3 Zrotation Xrotation Yrotation
        JOINT ElbowRight
        {
          OFFSET 6.036626 -25.857472 1.728801
          CHANNELS 3 Zrotation Xrotation Yrotation
          JOINT WristRight
          {
            OFFSET 0.618534 -22.087789 -5.632438
            CHANNELS 3 Zrotation Xrotation Yrotation
            JOINT HandRight
            {
              OFFSET -2.059268 -2.900966 0.693635
              CHANNELS 3 Zrotation Xrotation Yrotation
              JOINT HandTipRight
              {
                OFFSET 0.178651 -6.470404 -0.683349
                CHANNELS 3 Zrotation Xrotation Yrotation
                End Site
                {
                  OFFSET 0 0 0
                }
              }
              JOINT ThumbRight
              {
                OFFSET -3.279848 2.068997 -1.675118
                CHANNELS 3 Zrotation Xrotation Yrotation
                End Site
                {
                  OFFSET 0 0 0
                }
              }
            }
          }
        }
      }
    }
  }
  JOINT HipLeft
  {
    OFFSET -6.672741 0.443830 -1.806952
    CHANNELS 3 Zrotation Xrotation Yrotation
    JOINT KneeLeft
    {
      OFFSET 3.425303 -28.758838 6.491583
      CHANNELS 3 Zrotation Xrotation Yrotation
      JOINT AnkleLeft
      {
        OFFSET 5.490111 -31.743197 5.807122
        CHANNELS 3 Zrotation Xrotation Yrotation
        JOINT FootLeft
        {
          OFFSET -2.314782 -3.682131 -12.821417
          CHANNELS 3 Zrotation Xrotation Yrotation
          End Site
          {
            OFFSET 0 0 0
          }
        }
      }
    }
  }
  JOINT HipRight
  {
    OFFSET 7.329388 1.321984 -5.016732
    CHANNELS 3 Zrotation Xrotation Yrotation
    JOINT KneeRight
    {
      OFFSET 6.386673 -28.643436 4.134837
      CHANNELS 3 Zrotation Xrotation Yrotation
      JOINT AnkleRight
      {
        OFFSET 2.593385 -31.024165 6.111727
        CHANNELS 3 Zrotation Xrotation Yrotation
        JOINT FootRight
        {
          OFFSET -2.440169 -3.674603 -12.827230
          CHANNELS 3 Zrotation Xrotation Yrotation
          End Site
          {
            OFFSET 0 0 0
          }
        }
      }
    }
  }
}
MOTION
Frames: 12
Frame Time: 0.033333
-33.984229 74.421248 334.164146 -0.000000 0.000000 12.911136 -0.000000 0.000000 -12.911136 -0.000000 0.000000 0.000000 -0.000000 0.000000 0.000000 0.000000 0.000000 0.000000 -0.000000 0.000000 0.000000 -0.000000 0.000000 0.000000 -0.000000 0.000000 0.000000 -0.000000 0.000000 0.000000 0.000000 0.000000 0.000000 0.000000 0.000000 0.000000 -0.000000 0.000000 0.000000 -0.000000 0.000000 0.000000 -0.000000 0.000000 0.000000 -0.000000 0.000000 0.000000 0.000000 0.000000 0.000000 0.000000 0.000000 0.000000 -0.000000 0.000000 -12.911136 -0.000000 0.000000 0.000000 -0.000000 0.000000 0.000000 0.000000 0.000000 0.000000 -0.000000 0.000000 -12.911136 -0.000000 0.000000 0.000000 -0.000000 0.000000 0.000000 0.000000 0.000000 0.000000
-33.946207 74.423578 334.075758 0.062216 0.116027 12.496179 -0.085847 -0.099816 -12.496316 -0.000000 0.000000 0.000000 -0.000000 0.000000 0.000000 0.000000 0.000000 0.000000 0.252747 0.781712 -0.059849 -0.251954 -0.781968 0.056405 -1.566085 -1.725370 -0.331932 2.267081 2.173116 0.411004 0.000000 0.000000 0.000000 0.000000 0.000000 0.000000 -0.000000 0.000000 0.000000 -0.000000 0.000000 0.000000 -1.718655 -1.191171 0.411350 1.727528 1.178265 -0.446982 0.000000 0.000000 0.000000 0.000000 0.000000 0.000000 -0.085847 -0.099816 -12.496316 -0.000000 0.000000 0.000000 -0.000000 0.000000 0.000000 0.000000 0.000000 0.000000 -0.085847 -0.099816 -12.496316 -0.000000 0.000000 0.000000 -0.000000 0.000000 0.000000 0.000000 0.000000 0.000000
-33.920145 74.418209 334.008895 0.125395 0.199110 12.189450 -0.164610 -0.168144 -12.189910 -0.000000 0.000000 0.000000 -0.763908 0.764975 0.193597 0.000000 0.000000 0.000000 0.494514 1.417281 -0.109915 -0.491945 -1.418174 0.097710 -2.514046 -3.559393 -1.043252 3.320453 4.481364 1.088581 0.000000 0.000000 0.000000 0.000000 0.000000 0.000000 -0.000000 0.000000 0.000000 0.210059 1.344844 -0.018313 -3.641497 -3.422075 0.511587 4.346351 2.335663 -0.822173 0.000000 0.000000 0.000000 0.000000 0.000000 0.000000 -0.164610 -0.168144 -12.189910 -0.000000 0.000000 0.000000 -0.000000 0.000000 0.000000 0.000000 0.000000 0.000000 -0.164610 -0.168144 -12.189910 -0.000000 0.000000 0.000000 -0.000000 0.000000 0.000000 0.000000 0.000000 0.000000
-33.906044 74.405140 333.963557 0.189507 0.249155 11.991287 -0.237138 -0.204344 -11.992122 -0.000000 0.000000 0.000000 -0.836556 0.875848 0.223332 0.000000 0.000000 0.000000 0.724776 1.905316 -0.148949 -0.720220 -1.907042 0.124909 -2.963936 -5.591076 -2.123694 3.216387 7.000096 2.125692 0.000000 0.000000 0.000000 0.000000 0.000000 0.000000 -0.424071 -0.847831 -0.229511 0.694886 2.554363 0.191365 -5.391124 -4.295121 0.356108 6.264599 2.552220 -0.887547 0.000000 0.000000 0.000000 0.000000 0.000000 0.000000 -0.237138 -0.204344 -11.992122 -0.000000 0.000000 0.000000 0.212484 0.159839 -0.837556 0.000000 0.000000 0.000000 -0.237138 -0.204344 -11.992122 -0.000000 0.000000 0.000000 0.213873 0.155666 -0.847265 0.000000 0.000000 0.000000
-33.903902 74.384371 333.939744 0.254517 0.266100 11.901753 -0.303927 -0.207886 -11.902895 -0.000000 0.000000 0.000000 -0.705118 0.808619 0.207088 0.000000 0.000000 0.000000 0.943102 2.244571 -0.175778 0.005588 -2.154629 -0.082124 -3.885325 -8.036752 -3.347819 1.913455 9.784873 3.675697 0.000000 0.000000 0.000000 0.000000 0.000000 0.000000 -0.375217 -0.966613 -0.253971 0.691531 2.824248 0.205428 -7.048453 -4.528285 -0.055705 7.966353 2.103306 -0.646432 0.000000 0.000000 0.000000 0.000000 0.000000 0.000000 -0.303927 -0.207886 -11.902895 -0.000000 0.000000 0.000000 0.238188 0.173578 -0.935138 0.000000 0.000000 0.000000 -0.303927 -0.207886 -11.902895 -0.000000 0.000000 0.000000 0.240397 0.168958 -0.948147 0.000000 0.000000 0.000000
-33.913720 74.355901 333.937456 0.320394 0.249919 11.920658 -0.365109 -0.178346 -11.921925 -0.000000 0.000000 0.000000 -0.000000 0.000000 0.000000 0.000000 0.000000 0.000000 1.149161 2.433838 -0.189313 -0.083242 -2.272797 -0.099554 -3.588925 -10.894921 -5.261440 -0.733866 12.860134 5.980692 0.000000 0.000000 0.000000 0.000000 0.000000 0.000000 -0.231669 -1.004679 -0.252047 0.572862 2.804762 0.197010 -8.569416 -4.074075 -0.700590 9.432585 0.971559 -0.058616 0.000000 0.000000 0.000000 0.000000 0.000000 0.000000 -0.365109 -0.178346 -11.921925 -0.000000 0.000000 0.000000 0.241181 0.167882 -0.942121 0.000000 0.000000 0.000000 -0.365109 -0.178346 -11.921925 -0.000000 0.000000 0.000000 0.244385 0.163287 -0.958443 0.000000 0.000000 0.000000
-33.923935 74.324681 333.916029 0.374849 0.258753 11.893187 -0.420131 -0.175942 -11.894678 -0.000000 0.000000 0.000000 -0.000000 0.000000 0.000000 0.000000 0.000000 0.000000 1.297862 2.765972 -0.219177 -0.093218 -2.535085 -0.103866 -2.572547 -14.738133 -8.050872 -7.388227 15.661657 10.081618 0.000000 0.000000 0.000000 0.000000 0.000000 0.000000 -0.122671 -1.056695 -0.255939 0.540149 2.851430 0.180183 -10.674068 -3.478502 -1.575168 11.501093 -0.923911 0.761547 0.000000 0.000000 0.000000 0.000000 0.000000 0.000000 -0.420131 -0.175942 -11.894678 0.879966 0.252717 0.202565 -0.640612 -0.081570 -1.142747 0.000000 0.000000 0.000000 -0.420131 -0.175942 -11.894678 -0.000000 0.000000 0.000000 0.244441 0.164483 -0.959400 0.000000 0.000000 0.000000
-33.950588 74.320912 333.873775 0.432367 0.333833 11.802994 -0.491514 -0.238326 -11.805275 -0.000000 0.000000 0.000000 -0.000000 0.000000 0.000000 0.000000 0.000000 0.000000 1.411742 3.294850 -0.270549 -0.328912 -3.038769 -0.029315 1.863560 -20.768122 -13.038377 -18.648804 17.760127 18.271004 0.000000 0.000000 0.000000 0.000000 0.000000 0.000000 0.232829 -1.045118 -0.226062 0.243355 2.560314 0.133985 -12.931031 -0.603447 -3.528772 13.534786 -4.009476 3.233324 0.000000 0.000000 0.000000 0.000000 0.000000 0.000000 -0.491514 -0.238326 -11.805275 1.146280 0.396798 0.274066 -0.877048 -0.171826 -1.354119 0.000000 0.000000 0.000000 -0.491514 -0.238326 -11.805275 -0.000000 0.000000 0.000000 0.275995 0.216793 -1.102376 0.000000 0.000000 0.000000
-34.008566 74.295309 333.926951 0.472213 0.280790 12.348566 -0.521339 -0.173298 -12.350512 -0.000000 0.000000 0.000000 1.483205 -0.823734 -0.172647 0.000000 0.000000 0.000000 1.637558 2.505858 -0.185143 -0.608158 -2.010331 -0.090172 4.958856 -22.583318 -14.603288 -24.137493 17.395113 21.636211 0.000000 0.000000 0.000000 0.000000 0.000000 0.000000 0.839425 -0.872101 -0.140777 -0.354672 1.610203 0.039248 -14.060425 2.481389 -4.867158 13.550064 -7.292989 5.330583 0.000000 0.000000 0.000000 0.000000 0.000000 0.000000 -0.521339 -0.173298 -12.350512 1.316112 0.524152 0.325041 -1.120110 -0.311310 -1.149820 0.000000 0.000000 0.000000 -0.521339 -0.173298 -12.350512 -0.000000 0.000000 0.000000 0.204617 0.203827 -0.845728 0.000000 0.000000 0.000000
-34.138413 74.221720 334.063880 0.492491 0.063592 13.086616 -0.494099 0.049572 -13.086675 -0.000000 0.000000 0.000000 3.100838 -2.676891 -0.569241 0.000000 0.000000 0.000000 1.858075 1.238031 -0.046362 -0.765307 0.024757 -0.178312 5.038630 -26.968685 -16.873441 -26.553158 22.116684 26.382830 0.000000 0.000000 0.000000 0.000000 0.000000 0.000000 1.522404 -0.181304 0.061676 -1.405409 -0.620013 -0.108955 -13.833056 4.699952 -4.963267 12.738286 -8.670475 5.905829 0.000000 0.000000 0.000000 0.000000 0.000000 0.000000 -0.494099 0.049572 -13.086675 1.344644 0.579328 0.339026 -1.348116 -0.571203 -0.352544 0.000000 0.000000 0.000000 -0.494099 0.049572 -13.086675 -0.000000 0.000000 0.000000 -0.000000 0.000000 0.000000 0.000000 0.000000 0.000000
-34.247045 74.154117 334.319828 0.616377 -0.398772 15.243025 0.328835 -0.099726 -15.208664 0.097746 -0.386190 0.053690 4.677481 -4.730770 -1.213404 0.000000 0.000000 0.000000 1.294237 -0.023754 0.087004 -1.382153 2.522387 -0.311447 -0.719773 -27.517400 -16.410292 -19.324664 32.485930 25.879220 0.000000 0.000000 0.000000 0.000000 0.000000 0.000000 1.158673 1.515397 0.194631 -2.839488 -3.468265 -0.274515 -9.432791 9.764153 -6.068243 11.765162 -14.062854 7.572899 0.000000 0.000000 0.000000 0.000000 0.000000 0.000000 0.112504 1.346128 -15.053759 0.895049 -0.256523 0.163762 -1.591542 -0.958706 0.942383 0.000000 0.000000 0.000000 -0.489873 0.546777 -15.238543 -0.000000 0.000000 0.000000 -0.308082 -0.290009 1.276199 0.000000 0.000000 0.000000
-34.750334 74.159047 334.745968 0.332684 -1.154691 17.725319 0.494588 -0.191177 -17.697013 0.163651 -0.957316 0.060716 7.256851 -6.545133 -1.853990 0.000000 0.000000 0.000000 2.150177 -1.546849 0.391409 -2.371407 4.334536 -0.587451 -1.028197 -32.928317 -21.188922 -25.616753 42.926873 36.113706 0.000000 0.000000 0.000000 0.000000 0.000000 0.000000 1.766858 3.750873 0.352359 -3.325385 -6.132577 -0.640252 -0.132404 11.054204 -4.738018 3.632279 -17.502241 4.921830 0.000000 0.000000 0.000000 0.000000 0.000000 0.000000 1.581303 2.782441 -17.315726 -0.084014 -1.234591 -0.156030 -1.758610 -1.452238 3.099096 0.000000 0.000000 0.000000 1.539741 0.013208 -17.629665 -1.984178 1.562256 -0.057956 -0.807356 -0.411054 3.061514 0.000000 0.000000 0.000000
